<svg width="60" height="60" viewBox="0 0 60 60" fill="none" xmlns="http://www.w3.org/2000/svg">
<g clip-path="url(#clip0_62_37)">
<mask id="mask0_62_37" style="mask-type:luminance" maskUnits="userSpaceOnUse" x="0" y="0" width="60" height="60">
<path d="M60 0H0V60H60V0Z" fill="white"/>
</mask>
<g mask="url(#mask0_62_37)">
<path d="M47.079 48H9.523C8.06178 48.0013 6.6597 47.423 5.62431 46.392C4.58891 45.3609 4.00477 43.9612 4 42.5V20.5C4.00503 19.0389 4.58926 17.6394 5.6246 16.6083C6.65993 15.5773 8.06186 14.9989 9.523 15H47.079C48.5401 14.9989 49.9421 15.5773 50.9774 16.6083C52.0127 17.6394 52.597 19.0389 52.602 20.5V21.6H53.687C54.5636 21.5995 55.4046 21.9466 56.0256 22.5652C56.6467 23.1838 56.9971 24.0234 57 24.9V38.1C56.9971 38.9767 56.6466 39.8165 56.0253 40.4352C55.404 41.0538 54.5627 41.4008 53.686 41.4H52.6V42.5C52.595 43.9608 52.011 45.36 50.9761 46.391C49.9412 47.4219 48.5398 48.0005 47.079 48ZM9.523 17.2C8.64625 17.1992 7.80498 17.5462 7.18371 18.1648C6.56245 18.7835 6.21191 19.6233 6.209 20.5V42.5C6.21191 43.3767 6.56245 44.2165 7.18371 44.8352C7.80498 45.4538 8.64625 45.8008 9.523 45.8H47.079C47.9557 45.8008 48.797 45.4538 49.4183 44.8352C50.0396 44.2165 50.3901 43.3767 50.393 42.5V40.3C50.393 40.1556 50.4215 40.0125 50.4767 39.8791C50.532 39.7456 50.613 39.6243 50.7152 39.5222C50.8173 39.42 50.9386 39.339 51.072 39.2837C51.2055 39.2285 51.3485 39.2 51.493 39.2H53.682C53.9737 39.2 54.2535 39.0841 54.4598 38.8778C54.6661 38.6715 54.782 38.3917 54.782 38.1V24.9C54.782 24.6083 54.6661 24.3285 54.4598 24.1222C54.2535 23.9159 53.9737 23.8 53.682 23.8H51.5C51.2083 23.8 50.9285 23.6841 50.7222 23.4778C50.5159 23.2715 50.4 22.9917 50.4 22.7V20.5C50.3971 19.6233 50.0466 18.7835 49.4253 18.1648C48.804 17.5462 47.9627 17.1992 47.086 17.2H9.523Z" fill="white"/>
<path d="M44.8699 41.3996H11.7279C11.4362 41.3996 11.1564 41.2837 10.9501 41.0774C10.7438 40.8711 10.6279 40.5914 10.6279 40.2996V22.6996C10.6279 22.4079 10.7438 22.1281 10.9501 21.9218C11.1564 21.7155 11.4362 21.5996 11.7279 21.5996H44.8699C45.1617 21.5996 45.4415 21.7155 45.6478 21.9218C45.854 22.1281 45.9699 22.4079 45.9699 22.6996V40.2996C45.9699 40.5914 45.854 40.8711 45.6478 41.0774C45.4415 41.2837 45.1617 41.3996 44.8699 41.3996ZM12.8369 39.1996H43.7649V23.7996H12.8369V39.1996Z" fill="white"/>
</g>
</g>
<defs>
<clipPath id="clip0_62_37">
<rect width="60" height="60" fill="white"/>
</clipPath>
</defs>
</svg>
