<svg width="695" height="126" viewBox="0 0 695 126" fill="none" xmlns="http://www.w3.org/2000/svg">
<path d="M42.775 1.85C55.6083 1.85 66.8667 4.35833 76.55 9.37499C86.35 14.3917 93.875 21.5667 99.125 30.9C104.492 40.1167 107.175 50.85 107.175 63.1C107.175 75.35 104.492 86.0833 99.125 95.3C93.875 104.4 86.35 111.458 76.55 116.475C66.8667 121.492 55.6083 124 42.775 124H0.075001V1.85H42.775ZM41.9 103.175C54.7333 103.175 64.65 99.675 71.65 92.675C78.65 85.675 82.15 75.8167 82.15 63.1C82.15 50.3833 78.65 40.4667 71.65 33.35C64.65 26.1167 54.7333 22.5 41.9 22.5H24.575V103.175H41.9ZM157.014 1.85V124H132.514V1.85H157.014ZM273.271 38.6C270.471 33.4667 266.621 29.5583 261.721 26.875C256.821 24.1917 251.104 22.85 244.571 22.85C237.337 22.85 230.921 24.4833 225.321 27.75C219.721 31.0167 215.346 35.6833 212.196 41.75C209.046 47.8167 207.471 54.8167 207.471 62.75C207.471 70.9167 209.046 78.0333 212.196 84.1C215.462 90.1667 219.954 94.8333 225.671 98.1C231.387 101.367 238.037 103 245.621 103C254.954 103 262.596 100.55 268.546 95.65C274.496 90.6333 278.404 83.6917 280.271 74.825H238.271V56.1H304.421V77.45C302.787 85.9667 299.287 93.8417 293.921 101.075C288.554 108.308 281.612 114.142 273.096 118.575C264.696 122.892 255.246 125.05 244.746 125.05C232.962 125.05 222.287 122.425 212.721 117.175C203.271 111.808 195.804 104.4 190.321 94.95C184.954 85.5 182.271 74.7667 182.271 62.75C182.271 50.7333 184.954 40 190.321 30.55C195.804 20.9833 203.271 13.575 212.721 8.325C222.287 2.95833 232.904 0.274997 244.571 0.274997C258.337 0.274997 270.296 3.65833 280.446 10.425C290.596 17.075 297.596 26.4667 301.446 38.6H273.271ZM354.047 1.85V124H329.547V1.85H354.047ZM468.378 1.85V21.625H435.828V124H411.328V21.625H378.778V1.85H468.378ZM517.754 21.625V52.25H558.879V71.675H517.754V104.05H564.129V124H493.254V1.67499H564.129V21.625H517.754ZM666.543 124L640.118 82.875L616.143 124H588.493L626.993 62.4L587.968 1.85H616.143L642.568 42.8L666.368 1.85H694.018L655.693 63.275L694.718 124H666.543Z" fill="url(#paint0_linear_132_7)"/>
<defs>
<linearGradient id="paint0_linear_132_7" x1="-12" y1="63" x2="1479.03" y2="63" gradientUnits="userSpaceOnUse">
<stop stop-color="#6CB8FF"/>
<stop offset="0.417708" stop-color="#7D8CDC"/>
<stop offset="1" stop-color="#1E1E1E"/>
<stop offset="1" stop-color="#0E6EFF"/>
<stop offset="1" stop-color="#9AC3FF"/>
</linearGradient>
</defs>
</svg>
