<svg width="635" height="102" viewBox="0 0 635 102" fill="none" xmlns="http://www.w3.org/2000/svg">
<path opacity="0.975" fill-rule="evenodd" clip-rule="evenodd" d="M221.5 60.4999C221.5 54.1669 221.5 47.8329 221.5 41.4999C237.833 41.4999 254.167 41.4999 270.5 41.4999C270.5 46.1669 270.5 50.8329 270.5 55.4999C265.789 83.3739 249.289 98.7069 221 101.5C194.54 99.0319 177.874 85.0319 171 59.4999C168.231 31.1859 180.065 12.0199 206.5 1.9999C228.955 -3.4731 247.288 2.8609 261.5 20.9999C256.306 25.0269 250.973 28.8599 245.5 32.4999C231.09 18.1379 215.757 16.9709 199.5 28.9999C186.535 46.1859 188.201 61.8519 204.5 75.9999C223.82 85.0079 238.487 80.1749 248.5 61.4999C239.525 60.5019 230.525 60.1679 221.5 60.4999Z" fill="#E7E7E7"/>
<path opacity="0.176" fill-rule="evenodd" clip-rule="evenodd" d="M516.5 19.5C495.34 20.497 474.007 20.831 452.5 20.5C452.5 13.833 452.5 7.167 452.5 0.5C474.167 0.5 495.833 0.5 517.5 0.5C517.823 7.022 517.49 13.355 516.5 19.5Z" fill="#878686"/>
<path opacity="0.176" fill-rule="evenodd" clip-rule="evenodd" d="M609.5 1.49977C617.01 0.179766 624.677 0.179766 632.5 1.49977C632.376 2.10677 632.043 2.43977 631.5 2.49977C624.352 1.50777 617.019 1.17477 609.5 1.49977Z" fill="#9E9D9D"/>
<path opacity="0.176" fill-rule="evenodd" clip-rule="evenodd" d="M38.5 1.49992C26.167 1.49992 13.833 1.49992 1.5 1.49992C1.5 34.1669 1.5 66.8329 1.5 99.4999C13.833 99.4999 26.167 99.4999 38.5 99.4999C26.011 100.495 13.344 100.829 0.5 100.5C0.5 67.1669 0.5 33.8329 0.5 0.499917C13.344 0.170917 26.011 0.504917 38.5 1.49992Z" fill="#9E9D9D"/>
<path opacity="0.99" fill-rule="evenodd" clip-rule="evenodd" d="M38.5 1.5C58.688 4.026 72.855 14.692 81 33.5C88.354 64.292 77.521 85.792 48.5 98C45.243 99.043 41.91 99.543 38.5 99.5C26.167 99.5 13.833 99.5 1.5 99.5C1.5 66.833 1.5 34.167 1.5 1.5C13.833 1.5 26.167 1.5 38.5 1.5ZM35.5 21.5C56.539 25.045 65.373 37.378 62 58.5C57.957 70.38 49.79 77.38 37.5 79.5C32.167 79.5 26.833 79.5 21.5 79.5C21.5 60.167 21.5 40.833 21.5 21.5C26.167 21.5 30.833 21.5 35.5 21.5Z" fill="#EAEAEA"/>
<path opacity="0.998" fill-rule="evenodd" clip-rule="evenodd" d="M136.5 1.5C137.498 33.996 137.832 66.662 137.5 99.5C131.167 99.5 124.833 99.5 118.5 99.5C118.175 68.427 118.508 37.427 119.5 6.5C125.093 4.636 130.759 2.97 136.5 1.5Z" fill="#ECECEC"/>
<path opacity="0.974" fill-rule="evenodd" clip-rule="evenodd" d="M316.5 0.5C317.498 33.662 317.832 66.996 317.5 100.5C310.833 100.5 304.167 100.5 297.5 100.5C297.5 69.167 297.5 37.833 297.5 6.5C304.051 4.87 310.384 2.87 316.5 0.5Z" fill="#EAEAEA"/>
<path opacity="0.983" fill-rule="evenodd" clip-rule="evenodd" d="M348.5 0.5C373.167 0.5 397.833 0.5 422.5 0.5C422.5 7.167 422.5 13.833 422.5 20.5C413.5 20.5 404.5 20.5 395.5 20.5C395.5 47.167 395.5 73.833 395.5 100.5C388.833 100.5 382.167 100.5 375.5 100.5C375.5 73.833 375.5 47.167 375.5 20.5C366.5 20.5 357.5 20.5 348.5 20.5C348.5 13.833 348.5 7.167 348.5 0.5Z" fill="#E7E6E6"/>
<path fill-rule="evenodd" clip-rule="evenodd" d="M516.5 19.5C495.5 19.5 474.5 19.5 453.5 19.5C453.5 13.5 453.5 7.5 453.5 1.5C474.5 1.5 495.5 1.5 516.5 1.5C516.5 7.5 516.5 13.5 516.5 19.5Z" fill="#ECEDEC"/>
<path opacity="0.972" fill-rule="evenodd" clip-rule="evenodd" d="M609.5 1.49976C617.019 1.17476 624.352 1.50776 631.5 2.49976C609.757 34.9778 587.757 67.3108 565.5 99.4998C557.648 99.8248 549.982 99.4918 542.5 98.4998C552.723 82.2638 563.389 66.2638 574.5 50.4998C563.624 33.9138 552.624 17.4138 541.5 0.999762C549.5 0.332762 557.5 0.332762 565.5 0.999762C572.639 11.6378 579.972 22.1378 587.5 32.4998C595.089 22.3128 602.422 11.9798 609.5 1.49976Z" fill="#E6E6E6"/>
<path opacity="0.094" fill-rule="evenodd" clip-rule="evenodd" d="M136.5 1.5C136.56 0.957 136.893 0.624 137.5 0.5C138.5 33.827 138.833 67.16 138.5 100.5C131.5 100.5 124.5 100.5 117.5 100.5C116.841 68.816 117.507 37.482 119.5 6.5C118.508 37.427 118.175 68.427 118.5 99.5C124.833 99.5 131.167 99.5 137.5 99.5C137.832 66.662 137.498 33.996 136.5 1.5Z" fill="#848383"/>
<path opacity="0.2" fill-rule="evenodd" clip-rule="evenodd" d="M35.5 21.4999C30.833 21.4999 26.167 21.4999 21.5 21.4999C21.5 40.8328 21.5 60.1668 21.5 79.4998C26.833 79.4998 32.167 79.4998 37.5 79.4998C32.025 80.4888 26.358 80.8218 20.5 80.4998C20.5 60.4998 20.5 40.4998 20.5 20.4999C25.695 20.1789 30.695 20.5129 35.5 21.4999Z" fill="#716F6F"/>
<path opacity="0.412" fill-rule="evenodd" clip-rule="evenodd" d="M270.5 55.5C270.5 50.833 270.5 46.167 270.5 41.5C254.167 41.5 237.833 41.5 221.5 41.5C221.5 47.833 221.5 54.167 221.5 60.5C220.509 54.021 220.176 47.354 220.5 40.5C237.5 40.5 254.5 40.5 271.5 40.5C271.821 45.695 271.487 50.695 270.5 55.5Z" fill="#C1C0C0"/>
<path opacity="0.176" fill-rule="evenodd" clip-rule="evenodd" d="M516.5 41.5001C517.49 47.6451 517.823 53.9781 517.5 60.5001C495.833 60.5001 474.167 60.5001 452.5 60.5001C452.5 53.8331 452.5 47.1671 452.5 40.5001C474.007 40.1691 495.34 40.5031 516.5 41.5001Z" fill="#908F8F"/>
<path fill-rule="evenodd" clip-rule="evenodd" d="M516.5 41.5C516.5 47.5 516.5 53.5 516.5 59.5C495.5 59.5 474.5 59.5 453.5 59.5C453.5 53.5 453.5 47.5 453.5 41.5C474.5 41.5 495.5 41.5 516.5 41.5Z" fill="#ECEDEC"/>
<path opacity="0.984" fill-rule="evenodd" clip-rule="evenodd" d="M593.5 76.5C601.676 75.179 610.009 75.179 618.5 76.5C623.71 84.42 629.043 92.253 634.5 100C626.147 100.832 617.813 100.665 609.5 99.5C604.109 91.792 598.775 84.125 593.5 76.5Z" fill="#7F82F3"/>
<path opacity="0.976" fill-rule="evenodd" clip-rule="evenodd" d="M516.5 81.5C516.5 87.5 516.5 93.5 516.5 99.5C495.167 99.5 473.833 99.5 452.5 99.5C452.5 93.5 452.5 87.5 452.5 81.5C473.833 81.5 495.167 81.5 516.5 81.5Z" fill="#ECECEC"/>
<path opacity="0.098" fill-rule="evenodd" clip-rule="evenodd" d="M516.5 81.5C517.49 87.645 517.823 93.978 517.5 100.5C495.66 100.831 473.994 100.497 452.5 99.5C473.833 99.5 495.167 99.5 516.5 99.5C516.5 93.5 516.5 87.5 516.5 81.5Z" fill="#838282"/>
<path opacity="0.098" fill-rule="evenodd" clip-rule="evenodd" d="M542.5 98.5C549.982 99.492 557.648 99.825 565.5 99.5C557.657 100.82 549.657 100.82 541.5 99.5C541.624 98.893 541.957 98.56 542.5 98.5Z" fill="#878686"/>
</svg>
