<svg width="60" height="60" viewBox="0 0 60 60" fill="none" xmlns="http://www.w3.org/2000/svg">
<g clip-path="url(#clip0_62_11)">
<mask id="mask0_62_11" style="mask-type:luminance" maskUnits="userSpaceOnUse" x="0" y="0" width="60" height="60">
<path d="M60 0H0V60H60V0Z" fill="white"/>
</mask>
<g mask="url(#mask0_62_11)">
<path d="M29.9999 3.86621C24.8314 3.86641 19.7789 5.39925 15.4815 8.2709C11.1841 11.1426 7.83469 15.224 5.8569 19.9992C3.87911 24.7744 3.36173 30.0289 4.37019 35.0981C5.37865 40.1674 7.86766 44.8237 11.5225 48.4784C15.1773 52.1331 19.8337 54.6219 24.903 55.6301C29.9723 56.6384 35.2267 56.1208 40.0018 54.1429C44.777 52.1649 48.8583 48.8153 51.7298 44.5178C54.6013 40.2203 56.1339 35.1678 56.1339 29.9992C56.1263 23.0705 53.3704 16.4278 48.4709 11.5285C43.5715 6.62926 36.9286 3.87362 29.9999 3.86621ZM29.9999 53.9552C25.2619 53.9552 20.6302 52.5502 16.6907 49.9179C12.7511 47.2856 9.68065 43.5442 7.86747 39.1668C6.0543 34.7894 5.57989 29.9726 6.50424 25.3256C7.42859 20.6786 9.71018 16.4101 13.0605 13.0598C16.4108 9.70945 20.6793 7.42787 25.3263 6.50352C29.9734 5.57917 34.7901 6.05358 39.1675 7.86675C43.5449 9.67993 47.2863 12.7504 49.9186 16.69C52.5509 20.6295 53.9559 25.2612 53.9559 29.9992C53.9485 36.3505 51.4222 42.4395 46.9312 46.9305C42.4402 51.4215 36.3512 53.9478 29.9999 53.9552Z" fill="white"/>
<path d="M53.0549 38.71H24.6549C24.3661 38.71 24.0891 38.8247 23.8849 39.0289C23.6807 39.2331 23.5659 39.5101 23.5659 39.799C23.5659 40.0878 23.6807 40.3648 23.8849 40.569C24.0891 40.7732 24.3661 40.8879 24.6549 40.8879H53.0549C53.3437 40.8879 53.6207 40.7732 53.825 40.569C54.0292 40.3648 54.1439 40.0878 54.1439 39.799C54.1439 39.5101 54.0292 39.2331 53.825 39.0289C53.6207 38.8247 53.3437 38.71 53.0549 38.71Z" fill="white"/>
<path d="M34.1059 54.308L20.0169 29.359C19.8744 29.107 19.6378 28.9219 19.3589 28.8445C19.08 28.767 18.7818 28.8035 18.5299 28.946C18.2779 29.0884 18.0928 29.3251 18.0154 29.6039C17.9379 29.8828 17.9744 30.181 18.1168 30.433L32.2008 55.377C32.2962 55.5447 32.4342 55.6842 32.6008 55.7813C32.7675 55.8784 32.9569 55.9297 33.1499 55.93C33.3385 55.9307 33.5241 55.8817 33.6878 55.788C33.9388 55.6465 34.1237 55.4114 34.202 55.1341C34.2803 54.8569 34.2457 54.5599 34.1059 54.308Z" fill="white"/>
<path d="M25.0938 19.2498C24.8421 19.1086 24.5448 19.0729 24.2668 19.1505C23.9889 19.2281 23.753 19.4127 23.6108 19.6638L9.35083 44.9258C9.20862 45.1773 9.17213 45.4751 9.24939 45.7536C9.32665 46.032 9.51133 46.2684 9.76283 46.4108C9.92682 46.5018 10.1113 46.5496 10.2988 46.5498C10.4915 46.5498 10.6808 46.4986 10.8472 46.4014C11.0136 46.3043 11.1512 46.1646 11.2458 45.9968L25.5058 20.7348C25.648 20.4832 25.6845 20.1854 25.6073 19.907C25.53 19.6285 25.3453 19.3921 25.0938 19.2498Z" fill="white"/>
<path d="M35.351 19.1104H6.99403C6.70521 19.1104 6.42822 19.2251 6.22399 19.4293C6.01976 19.6335 5.90503 19.9105 5.90503 20.1994C5.90503 20.4882 6.01976 20.7652 6.22399 20.9694C6.42822 21.1736 6.70521 21.2884 6.99403 21.2884H35.349C35.6378 21.2884 35.9148 21.1736 36.1191 20.9694C36.3233 20.7652 36.438 20.4882 36.438 20.1994C36.438 19.9105 36.3233 19.6335 36.1191 19.4293C35.9148 19.2251 35.6378 19.1104 35.349 19.1104H35.351Z" fill="white"/>
<path d="M41.8859 29.5439L27.8069 4.61286C27.7364 4.48811 27.642 4.37846 27.5291 4.29019C27.4162 4.20192 27.287 4.13675 27.1489 4.0984C27.0108 4.06004 26.8666 4.04927 26.7243 4.06668C26.5821 4.08409 26.4447 4.12934 26.3199 4.19986C26.1951 4.27038 26.0855 4.36478 25.9972 4.47768C25.9089 4.59057 25.8438 4.71975 25.8054 4.85783C25.7671 4.99591 25.7563 5.14019 25.7737 5.28244C25.7911 5.42468 25.8364 5.56211 25.9069 5.68686L39.9839 30.6179C40.0793 30.7855 40.2173 30.925 40.384 31.0221C40.5506 31.1192 40.74 31.1705 40.9329 31.1709C41.1216 31.1716 41.3071 31.1226 41.4709 31.0289C41.7222 30.8863 41.9067 30.6499 41.9839 30.3715C42.0612 30.0932 42.0248 29.7955 41.8829 29.5439H41.8859Z" fill="white"/>
<path d="M50.264 13.618C50.1395 13.5475 50.0022 13.5022 49.8602 13.4847C49.7181 13.4672 49.574 13.4779 49.4361 13.5162C49.2982 13.5545 49.1691 13.6195 49.0564 13.7077C48.9436 13.7959 48.8494 13.9054 48.779 14.03L34.497 39.264C34.3546 39.516 34.3181 39.8142 34.3955 40.0931C34.473 40.3719 34.658 40.6086 34.91 40.751C35.1619 40.8935 35.4602 40.93 35.739 40.8525C36.0179 40.7751 36.2546 40.59 36.397 40.338L50.676 15.103C50.8179 14.8514 50.8543 14.5537 50.777 14.2754C50.6998 13.997 50.5153 13.7606 50.264 13.618Z" fill="white"/>
</g>
</g>
<defs>
<clipPath id="clip0_62_11">
<rect width="60" height="60" fill="white"/>
</clipPath>
</defs>
</svg>
