<svg width="60" height="60" viewBox="0 0 60 60" fill="none" xmlns="http://www.w3.org/2000/svg">
<g clip-path="url(#clip0_62_26)">
<mask id="mask0_62_26" style="mask-type:luminance" maskUnits="userSpaceOnUse" x="0" y="0" width="60" height="60">
<path d="M60 0H0V60H60V0Z" fill="white"/>
</mask>
<g mask="url(#mask0_62_26)">
<path d="M23.657 37.5796C23.56 37.4825 23.4448 37.4056 23.318 37.353C23.1912 37.3005 23.0553 37.2734 22.918 37.2734C22.7808 37.2734 22.6449 37.3005 22.5181 37.353C22.3913 37.4056 22.2761 37.4825 22.179 37.5796L15.6 44.1586V38.3216C15.6 38.0443 15.4899 37.7784 15.2938 37.5823C15.0977 37.3862 14.8318 37.2761 14.5545 37.2761C14.2773 37.2761 14.0113 37.3862 13.8153 37.5823C13.6192 37.7784 13.509 38.0443 13.509 38.3216V46.6846C13.509 46.9618 13.6191 47.2275 13.8151 47.4235C14.0111 47.6195 14.2769 47.7296 14.554 47.7296H22.917C23.1943 47.7296 23.4602 47.6194 23.6563 47.4234C23.8524 47.2273 23.9625 46.9614 23.9625 46.6841C23.9625 46.4068 23.8524 46.1409 23.6563 45.9448C23.4602 45.7488 23.1943 45.6386 22.917 45.6386H17.078L23.655 39.0616C23.7524 38.9645 23.8296 38.8492 23.8823 38.7222C23.9351 38.5952 23.9622 38.4591 23.9622 38.3216C23.9622 38.1841 23.9351 38.048 23.8823 37.921C23.8296 37.794 23.7524 37.6787 23.655 37.5816L23.657 37.5796Z" fill="white"/>
<path d="M47.0821 13.5878C46.9548 13.5368 46.8192 13.51 46.6821 13.5088H38.3191C38.0418 13.5088 37.7759 13.6189 37.5798 13.815C37.3837 14.0111 37.2736 14.277 37.2736 14.5543C37.2736 14.8316 37.3837 15.0975 37.5798 15.2936C37.7759 15.4896 38.0418 15.5998 38.3191 15.5998H44.1581L37.5811 22.1768C37.4809 22.2731 37.4008 22.3885 37.3457 22.5162C37.2906 22.6438 37.2615 22.7812 37.2601 22.9202C37.2586 23.0592 37.285 23.1971 37.3375 23.3259C37.39 23.4546 37.4676 23.5716 37.5659 23.67C37.6641 23.7683 37.781 23.8462 37.9097 23.8988C38.0384 23.9515 38.1762 23.978 38.3152 23.9768C38.4543 23.9756 38.5917 23.9466 38.7194 23.8917C38.8471 23.8367 38.9626 23.7569 39.0591 23.6568L45.6361 17.0778V22.9168C45.6361 23.1941 45.7462 23.46 45.9423 23.6561C46.1384 23.8521 46.4043 23.9623 46.6816 23.9623C46.9589 23.9623 47.2248 23.8521 47.4209 23.6561C47.6169 23.46 47.7271 23.1941 47.7271 22.9168V14.5538C47.7269 14.3471 47.6656 14.1451 47.5508 13.9731C47.4361 13.8012 47.2729 13.6672 47.0821 13.5878Z" fill="white"/>
<path d="M48 6H12C10.4093 6.00185 8.88422 6.63459 7.7594 7.7594C6.63459 8.88422 6.00185 10.4093 6 12V48C6.00185 49.5907 6.63459 51.1158 7.7594 52.2406C8.88422 53.3654 10.4093 53.9981 12 54H48C49.5907 53.9981 51.1158 53.3654 52.2406 52.2406C53.3654 51.1158 53.9981 49.5907 54 48V12C53.9981 10.4093 53.3654 8.88422 52.2406 7.7594C51.1158 6.63459 49.5907 6.00185 48 6ZM51.6 48C51.6 48.9548 51.2207 49.8704 50.5456 50.5456C49.8704 51.2207 48.9548 51.6 48 51.6H12C11.5272 51.6 11.0591 51.5069 10.6223 51.326C10.1856 51.145 9.78871 50.8799 9.45441 50.5456C9.12012 50.2113 8.85495 49.8144 8.67403 49.3777C8.49312 48.9409 8.4 48.4728 8.4 48V12C8.4 11.5272 8.49312 11.0591 8.67403 10.6223C8.85495 10.1856 9.12012 9.78871 9.45441 9.45441C9.78871 9.12012 10.1856 8.85495 10.6223 8.67403C11.0591 8.49312 11.5272 8.4 12 8.4H48C48.4728 8.4 48.9409 8.49312 49.3777 8.67403C49.8144 8.85495 50.2113 9.12012 50.5456 9.45441C50.8799 9.78871 51.145 10.1856 51.326 10.6223C51.5069 11.0591 51.6 11.5272 51.6 12V48Z" fill="white"/>
</g>
</g>
<defs>
<clipPath id="clip0_62_26">
<rect width="60" height="60" fill="white"/>
</clipPath>
</defs>
</svg>
