<svg width="60" height="60" viewBox="0 0 60 60" fill="none" xmlns="http://www.w3.org/2000/svg">
<g clip-path="url(#clip0_62_2)">
<mask id="mask0_62_2" style="mask-type:luminance" maskUnits="userSpaceOnUse" x="0" y="0" width="60" height="60">
<path d="M60 0H0V60H60V0Z" fill="white"/>
</mask>
<g mask="url(#mask0_62_2)">
<path d="M29.5 6C19.312 6 9 8.308 9 12.72V47.28C9 51.692 19.312 54 29.5 54C39.688 54 50 51.692 50 47.28V12.72C50 8.308 39.688 6 29.5 6ZM48.048 47.28C48.048 49.28 40.992 52.08 29.5 52.08C18.008 52.08 10.952 49.28 10.952 47.28V38.8C11.011 38.84 11.093 38.875 11.152 38.917C11.5041 39.147 11.869 39.3567 12.245 39.545C12.356 39.599 12.46 39.656 12.575 39.71C13.1137 39.9618 13.6651 40.1855 14.227 40.38L14.327 40.413C19.2477 41.8808 24.366 42.5781 29.5 42.48C34.6349 42.5793 39.7542 41.8831 44.676 40.416L44.776 40.383C45.3379 40.1885 45.8893 39.9649 46.428 39.713C46.543 39.659 46.647 39.602 46.758 39.548C47.134 39.3597 47.4989 39.15 47.851 38.92C47.912 38.878 47.994 38.843 48.051 38.803V47.28H48.048ZM48.048 35.76C48.048 37.76 40.992 40.56 29.5 40.56C18.008 40.56 10.952 37.76 10.952 35.76V27.283C11.011 27.323 11.093 27.358 11.152 27.4C11.5041 27.63 11.869 27.8397 12.245 28.028C12.356 28.082 12.46 28.139 12.575 28.193C13.1137 28.4449 13.6651 28.6685 14.227 28.863L14.327 28.896C19.2479 30.3628 24.3661 31.059 29.5 30.96C34.6347 31.0606 39.754 30.3657 44.676 28.9L44.776 28.867C45.3379 28.6725 45.8893 28.4488 46.428 28.197C46.543 28.143 46.647 28.086 46.758 28.032C47.134 27.8437 47.4989 27.634 47.851 27.404C47.912 27.362 47.994 27.327 48.051 27.287V35.76H48.048ZM48.048 24.24C48.048 26.24 40.992 29.04 29.5 29.04C18.008 29.04 10.952 26.24 10.952 24.24V15.763C11.011 15.803 11.093 15.838 11.152 15.88C11.5041 16.11 11.869 16.3197 12.245 16.508C12.356 16.562 12.46 16.619 12.575 16.673C13.1137 16.9249 13.6651 17.1485 14.227 17.343L14.327 17.376C19.2479 18.8428 24.3661 19.539 29.5 19.44C34.6349 19.5393 39.7542 18.8431 44.676 17.376L44.776 17.343C45.3379 17.1485 45.8893 16.9249 46.428 16.673C46.543 16.619 46.647 16.562 46.758 16.508C47.134 16.3197 47.4989 16.11 47.851 15.88C47.912 15.838 47.994 15.803 48.051 15.763L48.048 24.24ZM29.5 17.52C18.008 17.52 10.952 14.72 10.952 12.72C10.952 10.72 18.008 7.92 29.5 7.92C40.992 7.92 48.048 10.72 48.048 12.72C48.048 14.72 40.992 17.52 29.5 17.52Z" fill="white"/>
</g>
</g>
<defs>
<clipPath id="clip0_62_2">
<rect width="60" height="60" fill="white"/>
</clipPath>
</defs>
</svg>
